<svg width="220" height="52" viewBox="0 0 220 52" xmlns="http://www.w3.org/2000/svg">
  <defs>
    <linearGradient id="brandGradient" x1="0%" y1="0%" x2="100%" y2="0%">
      <stop offset="0%" style="stop-color:#E50064;stop-opacity:1" />
      <stop offset="100%" style="stop-color:#7A00FF;stop-opacity:1" />
    </linearGradient>
  </defs>
  <g>
    <!-- MUV lettere -->
    <g fill="url(#brandGradient)" font-family="Arial Black, Arial, sans-serif" font-weight="900">
      <!-- M -->
      <path d="M8 14h3v18l6-18h3l6 18V14h3v24h-4l-7-20-7 20h-4V14z"/>
      <!-- U -->
      <path d="M35 14h3v14c0 3 2 5 5 5s5-2 5-5V14h3v14c0 5-4 9-8 9s-8-4-8-9V14z"/>
      <!-- V -->
      <path d="M58 14h3l6 20 6-20h3l-8 24h-2l-8-24z"/>
    </g>
    
    <!-- FITNESS text -->
    <text x="85" y="25" font-family="Arial, sans-serif" font-size="14" font-weight="700" fill="#111111">FITNESS</text>
    
    <!-- LEGNAGO text -->
    <text x="85" y="40" font-family="Arial, sans-serif" font-size="10" font-weight="400" fill="#666666">LEGNAGO</text>
    
    <!-- Decorative element -->
    <circle cx="200" cy="26" r="8" fill="url(#brandGradient)" opacity="0.2"/>
    <circle cx="200" cy="26" r="4" fill="url(#brandGradient)"/>
  </g>
</svg>