<svg width="220" height="52" viewBox="0 0 220 52" xmlns="http://www.w3.org/2000/svg">
  <g fill="#111111">
    <path d="M20 12h4v16l8-16h4v24h-4V20l-8 16h-4V12zm20 0h4v8h8v-8h4v24h-4v-12h-8v12h-4V12zm32-2c6 0 10 4 10 14s-4 14-10 14-10-4-10-14 4-14 10-14zm0 4c-4 0-6 2-6 10s2 10 6 10 6-2 6-10-2-10-6-10z"/>
    <text x="100" y="30" font-family="Arial, sans-serif" font-size="18" font-weight="700" fill="#111111">FITNESS</text>
    <text x="100" y="45" font-family="Arial, sans-serif" font-size="12" fill="#555">LEGNAGO</text>
  </g>
</svg>